<?xml version="1.0" encoding="UTF-8" standalone="no"?>
<!-- Created with Inkscape (http://www.inkscape.org/) -->

<svg
   xmlns:dc="http://purl.org/dc/elements/1.1/"
   xmlns:cc="http://creativecommons.org/ns#"
   xmlns:rdf="http://www.w3.org/1999/02/22-rdf-syntax-ns#"
   xmlns:svg="http://www.w3.org/2000/svg"
   xmlns="http://www.w3.org/2000/svg"
   xmlns:sodipodi="http://sodipodi.sourceforge.net/DTD/sodipodi-0.dtd"
   xmlns:inkscape="http://www.inkscape.org/namespaces/inkscape"
   width="128.72217"
   height="130.71184"
   id="svg3021"
   version="1.1"
   inkscape:version="0.48.3.1 r9886"
   sodipodi:docname="Nov dokument 2">
  <defs
     id="defs3023" />
  <sodipodi:namedview
     id="base"
     pagecolor="#ffffff"
     bordercolor="#666666"
     borderopacity="1.0"
     inkscape:pageopacity="0.0"
     inkscape:pageshadow="2"
     inkscape:zoom="0.35"
     inkscape:cx="33.646797"
     inkscape:cy="-394.64407"
     inkscape:document-units="px"
     inkscape:current-layer="layer1"
     showgrid="false"
     fit-margin-top="1"
     fit-margin-left="1"
     fit-margin-right="1"
     fit-margin-bottom="1"
     inkscape:window-width="1094"
     inkscape:window-height="647"
     inkscape:window-x="355"
     inkscape:window-y="234"
     inkscape:window-maximized="0" />
  <metadata
     id="metadata3026">
    <rdf:RDF>
      <cc:Work
         rdf:about="">
        <dc:format>image/svg+xml</dc:format>
        <dc:type
           rdf:resource="http://purl.org/dc/dcmitype/StillImage" />
        <dc:title></dc:title>
      </cc:Work>
    </rdf:RDF>
  </metadata>
  <g
     inkscape:label="Layer 1"
     inkscape:groupmode="layer"
     id="layer1"
     transform="translate(-1.353203,-7.0062679)">
    <g
       transform="matrix(2.5199982,0,0,2.5199982,-555.85367,-522.46484)"
       id="g3705"
       inkscape:export-filename="/home/drazen/Namizje/test.png"
       inkscape:export-xdpi="99.602974"
       inkscape:export-ydpi="99.602974">
      <path
         inkscape:connector-curvature="0"
         id="path3707"
         d="m 262.34139,210.50621 c -1.76942,-0.0459 -3.51833,0.86668 -4.46535,2.50728 -1.37793,2.38633 -0.54809,5.42799 1.83867,6.80548 2.38633,1.37793 5.42756,0.54766 6.80548,-1.83867 1.37793,-2.38676 0.57154,-5.42756 -1.81479,-6.80548 -0.74573,-0.4306 -1.55973,-0.64773 -2.36401,-0.66861 z m -11.1992,3.70123 c -0.42688,-0.008 -0.8601,0.006 -1.28946,0.0238 -2.86236,0.11876 -5.7451,0.83522 -8.45312,2.17298 l 10.38731,16.90625 20.01051,0.21491 c -0.25657,-2.989 -1.17083,-5.96976 -2.76995,-8.73968 -0.72028,-1.24708 -1.54189,-2.39904 -2.45953,-3.43856 -2.26828,1.6865 -5.42002,1.98081 -8.0233,0.47758 -2.60243,-1.50238 -3.93048,-4.38097 -3.60572,-7.18754 -1.25228,-0.25497 -2.51607,-0.40535 -3.79674,-0.42982 z m -12.75132,4.01165 c -4.01444,2.88755 -6.75063,6.97519 -7.99943,11.48574 3.32058,2.07605 4.40898,6.41992 2.43565,9.8381 -0.56006,0.97005 -1.30821,1.76775 -2.17298,2.36401 0.44795,1.36386 1.04463,2.71939 1.79092,4.01165 1.5322,2.65399 3.5676,4.82945 5.89808,6.51894 l 10.33956,-16.95401 -10.2918,-17.26443 z m -12.22599,12.70357 c -1.59771,0.11282 -3.12683,0.99194 -3.98777,2.4834 -1.37793,2.38676 -0.54809,5.45144 1.83867,6.82936 2.38633,1.37793 5.42755,0.54808 6.80548,-1.83867 1.37792,-2.38633 0.57154,-5.42799 -1.81479,-6.80549 -0.89488,-0.51672 -1.88297,-0.7363 -2.84159,-0.6686 z m 45.63255,6.11299 -19.89111,0.11939 -10.55447,17.12116 c 4.19089,2.07649 9.01478,2.73538 13.6826,1.76704 0.078,-1.06339 0.38617,-2.14274 0.95515,-3.12813 1.98655,-3.44077 6.3449,-4.6363 9.81423,-2.74608 3.51621,-3.57203 5.5968,-8.26354 5.9936,-13.13338 z m -9.8381,14.56612 c -1.59771,0.11292 -3.10296,0.99195 -3.9639,2.4834 -1.37792,2.38634 -0.57196,5.45143 1.8148,6.82936 2.38633,1.37792 5.45185,0.54766 6.82936,-1.83867 1.37793,-2.38634 0.54808,-5.42755 -1.83868,-6.80548 -0.89487,-0.51657 -1.88296,-0.73637 -2.84158,-0.66861 z"
         style="fill:#f37936;fill-opacity:1;stroke:none" />
      <path
         sodipodi:type="arc"
         style="fill:#00ad6a;fill-opacity:1;fill-rule:evenodd;stroke:none"
         id="path3709"
         sodipodi:cx="193.93939"
         sodipodi:cy="816.36365"
         sodipodi:rx="80.909088"
         sodipodi:ry="80.909088"
         d="m 274.84848,816.36365 c 0,44.68485 -36.22423,80.90909 -80.90909,80.90909 -44.68485,0 -80.90909,-36.22424 -80.90909,-80.90909 0,-44.68486 36.22424,-80.90909 80.90909,-80.90909 44.68486,0 80.90909,36.22423 80.90909,80.90909 z"
         transform="matrix(0.02821943,0,0,0.02821943,245.30588,212.31147)" />
      <path
         inkscape:connector-curvature="0"
         id="path3711"
         style="font-size:12px;fill:#ffffff;fill-opacity:1;fill-rule:evenodd;stroke:none"
         d="m 242.80702,226.52832 c -8.98735,-0.56273 -12.33957,20.93973 12.67526,20.37714 0.62792,0.59041 0.96549,1.15318 1.18065,2.38898 2.93026,-1.39287 4.34143,-3.61471 4.3492,-5.00054 8.83905,-16.10657 -6.30001,-26.87811 -13.6337,-19.0284 -3.69666,-3.14704 -6.51326,-3.4613 -8.9427,-3.40339 0.57216,0.66416 0.60431,3.74016 0.80019,4.44334 1.37813,-0.1075 1.68933,-0.3099 3.5711,0.22287 z"
         sodipodi:nodetypes="cccccccc" />
      <path
         inkscape:connector-curvature="0"
         d="m 246.62688,228.27772 c -7.84084,-3.14167 -16.05237,15.34718 9.78301,16.16331 0.48791,0.45876 1.07197,0.94182 1.23916,1.90207 1.68322,-1.08229 1.07277,-2.59065 1.07879,-3.66746 7.06604,-14.09825 -5.35697,-21.01682 -11.05541,-14.91742 -2.8724,-2.44531 -5.11751,-4.38569 -7.00524,-4.34069 0.44457,0.51606 0.41978,0.9731 0.57198,1.51948 1.07085,-0.0836 2.94689,0.47399 5.38771,3.34071 z"
         style="font-size:12px;fill:#67a600;fill-opacity:1;fill-rule:evenodd;stroke:none"
         id="path3713" />
    </g>
  </g>
</svg>
